<svg width="16" height="14" viewBox="0 0 16 14" fill="none" xmlns="http://www.w3.org/2000/svg">
<path d="M14.2852 11C15.0162 9.79255 15.4109 8.41143 15.428 7C15.4109 5.58857 15.0162 4.20745 14.2852 3" stroke="#161616" stroke-width="1.37" stroke-linecap="round" stroke-linejoin="round"/>
<path d="M12.0039 5.28564C12.4012 5.76598 12.6049 6.37728 12.5753 6.99993C12.6049 7.62258 12.4012 8.23388 12.0039 8.71422" stroke="#161616" stroke-width="1.37" stroke-linecap="round" stroke-linejoin="round"/>
<path d="M3.43136 4.71434H1.71708C1.0946 4.71434 0.574219 5.23472 0.574219 5.8572V8.14291C0.574219 8.76538 1.0946 9.28577 1.71708 9.28577H3.43136L7.89993 12.4972C8.63742 13.0075 9.69712 12.4702 9.71708 11.5715V2.4286C9.73849 1.52936 8.74233 0.991198 8.00279 1.50289L3.43136 4.71434Z" stroke="#161616" stroke-width="1.37" stroke-linecap="round" stroke-linejoin="round"/>
</svg>
