<svg width="12" height="8" viewBox="0 0 12 8" fill="none" xmlns="http://www.w3.org/2000/svg">
<path d="M12 7.28479C11.9977 7.41323 11.9596 7.53858 11.8897 7.64724C11.8199 7.75589 11.7209 7.84371 11.6037 7.90109C11.4866 7.96592 11.3545 8 11.22 8C11.0855 8 10.9534 7.96592 10.8363 7.90109L5.39516 4.60395C5.27678 4.54807 5.17688 4.46059 5.10694 4.35157C5.03705 4.24255 5 4.11641 5 3.98766C5 3.85891 5.03705 3.73278 5.10694 3.62375C5.17688 3.51473 5.27678 3.42725 5.39516 3.37137L10.8363 0.0988636C10.9534 0.0340563 11.0855 0 11.22 0C11.3545 0 11.4866 0.0340563 11.6037 0.0988636C11.7209 0.156295 11.8199 0.244109 11.8897 0.352764C11.9596 0.461417 11.9977 0.586758 12 0.715156V7.28479Z" fill="#161616"/>
<path d="M7 7.28479C6.99774 7.41323 6.9596 7.53858 6.88974 7.64724C6.81987 7.75589 6.72094 7.84371 6.60371 7.90109C6.48664 7.96592 6.35446 8 6.22 8C6.08554 8 5.95335 7.96592 5.83629 7.90109L0.395158 4.60395C0.276774 4.54807 0.176884 4.46059 0.106935 4.35157C0.0370498 4.24255 -4.76837e-07 4.11641 -4.76837e-07 3.98766C-4.76837e-07 3.85891 0.0370498 3.73278 0.106935 3.62375C0.176884 3.51473 0.276774 3.42725 0.395158 3.37137L5.83629 0.0988636C5.95335 0.0340563 6.08554 0 6.22 0C6.35446 0 6.48664 0.0340563 6.60371 0.0988636C6.72094 0.156295 6.81987 0.244109 6.88974 0.352764C6.9596 0.461417 6.99774 0.586758 7 0.715156V7.28479Z" fill="#161616"/>
</svg>
