<svg width="17" height="17" viewBox="0 0 17 17" fill="none" xmlns="http://www.w3.org/2000/svg">
<path d="M7.84539 9.07419C6.8412 8.06217 6.11706 6.80669 5.7439 5.43069C5.37075 4.0547 5.36137 2.60538 5.71671 1.22467C4.80654 1.60186 3.97681 2.14937 3.27205 2.83782C1.83859 4.27128 1.03328 6.21546 1.03329 8.24268C1.03328 10.2699 1.83859 12.2141 3.27205 13.6475C4.70551 15.081 6.64968 15.8863 8.67691 15.8863C10.7041 15.8863 12.6483 15.081 14.0818 13.6475C14.7818 12.9375 15.338 12.0989 15.7199 11.1779C14.3376 11.5411 12.8847 11.538 11.5039 11.1691C10.1233 10.8002 8.86239 10.0782 7.84539 9.07419Z" stroke="#161616" stroke-width="1.67" stroke-linecap="round" stroke-linejoin="round"/>
</svg>
