<svg width="7" height="8" viewBox="0 0 7 8" fill="none" xmlns="http://www.w3.org/2000/svg">
<path d="M0 7.28479C0.00225823 7.41323 0.0403965 7.53858 0.110263 7.64724C0.18013 7.75589 0.279058 7.84371 0.396291 7.90109C0.51336 7.96592 0.645539 8 0.780001 8C0.914463 8 1.04665 7.96592 1.16371 7.90109L6.60484 4.60395C6.72322 4.54807 6.82312 4.46059 6.89306 4.35157C6.96295 4.24255 7 4.11641 7 3.98766C7 3.85891 6.96295 3.73278 6.89306 3.62375C6.82312 3.51473 6.72322 3.42725 6.60484 3.37137L1.16371 0.0988636C1.04665 0.0340563 0.914463 0 0.780001 0C0.645539 0 0.51336 0.0340563 0.396291 0.0988636C0.279058 0.156295 0.18013 0.244109 0.110263 0.352764C0.0403965 0.461417 0.00225823 0.586758 0 0.715156V7.28479Z" fill="#161616"/>
</svg>
