<svg width="32" height="32" viewBox="0 0 32 32" fill="none" xmlns="http://www.w3.org/2000/svg">
<g clip-path="url(#clip0_420_14147)">
<path d="M8.28126 21.5937L9.08334 22.9791C9.25 23.2707 9.48958 23.4999 9.77083 23.6666L12.6354 18.7083H6.90625C6.90625 19.0312 6.98958 19.3541 7.15625 19.6457L8.28126 21.5937Z" fill="#0066DA"/>
<path d="M16 12.8751L13.1354 7.91675C12.8542 8.08341 12.6146 8.31257 12.4479 8.60425L7.15625 17.7709C6.98958 18.0626 6.90625 18.3855 6.90625 18.7084H12.6354L16 12.8751Z" fill="#00AC47"/>
<path d="M15.9994 12.8751L18.8639 7.91675C18.5827 7.75008 18.2598 7.66675 17.9264 7.66675H14.0723C13.7389 7.66675 13.416 7.7605 13.1348 7.91675L15.9994 12.8751Z" fill="#00832D"/>
<path d="M19.3652 18.7083H12.6361L9.77148 23.6666C10.0527 23.8333 10.3757 23.9166 10.709 23.9166H21.2923C21.6257 23.9166 21.9486 23.8228 22.2298 23.6666L19.3652 18.7083Z" fill="#2684FC"/>
<path d="M22.2292 23.6666C22.5104 23.4999 22.75 23.2707 22.9167 22.9791L23.25 22.4062L24.8437 19.6457C25.0104 19.3541 25.0937 19.0312 25.0937 18.7083H19.375L22.2292 23.6666Z" fill="#EA4335"/>
<path d="M22.1979 13.1876L19.5521 8.60425C19.3854 8.31257 19.1458 8.08341 18.8646 7.91675L16 12.8751L19.3646 18.7084H25.0833C25.0833 18.3855 25 18.0626 24.8333 17.7709L22.1979 13.1876Z" fill="#FFBA00"/>
</g>
<defs>
<clipPath id="clip0_420_14147">
<rect width="20" height="20" fill="white" transform="translate(6 6)"/>
</clipPath>
</defs>
</svg>
