<svg width="32" height="32" viewBox="0 0 32 32" fill="none" xmlns="http://www.w3.org/2000/svg">
<g clip-path="url(#clip0_420_14139)">
<g clip-path="url(#clip1_420_14139)">
<path d="M12.2057 21.6672C10.9954 21.3648 10.3211 20.4027 10.319 18.9752C10.2983 18.6457 10.3482 18.3155 10.4653 18.0067C10.7445 17.2871 11.4838 16.7443 12.4567 16.5445C12.9408 16.4451 13.0899 16.3383 13.0899 16.0912C13.1135 15.916 13.1564 15.7439 13.2179 15.5781C13.5378 14.6483 14.1301 13.8732 14.763 13.5561C15.4254 13.2243 15.7598 13.1494 16.5611 13.1537C17.6991 13.1598 18.2668 13.4067 19.0609 14.2406L19.4976 14.6993L19.8888 14.5639C21.7823 13.9086 23.67 15.0241 23.8221 16.8882L23.8638 17.3982L24.2366 17.5318C25.3015 17.9133 25.802 18.7145 25.7113 19.8922C25.6519 20.6624 25.2918 21.2773 24.7214 21.5825L24.4532 21.726L18.4932 21.7375C13.9132 21.7463 12.4574 21.73 12.2057 21.6672Z" fill="#094AB1"/>
<path d="M7.73672 20.8438C7.34899 20.7291 6.98878 20.5363 6.67818 20.2774C6.36758 20.0185 6.11312 19.6989 5.93043 19.3382C5.73128 18.9334 5.7207 18.8738 5.7207 18.1576C5.7207 17.4764 5.7377 17.3671 5.89623 17.0289C6.06656 16.6725 6.31476 16.359 6.62249 16.1114C6.93022 15.8637 7.28964 15.6884 7.6742 15.5983C7.80224 15.5755 7.92335 15.5237 8.02827 15.4469C8.0703 15.2865 8.0912 15.1212 8.09041 14.9554C8.11138 14.2673 8.3431 13.6023 8.75425 13.0501C9.1654 12.498 9.73616 12.0854 10.3894 11.8681C11.1707 11.6544 12.0007 11.7046 12.7506 12.0109C12.9942 12.1084 12.9668 12.1293 13.4818 11.4539C13.8768 10.9815 14.3605 10.5911 14.9057 10.3048C15.4597 10.0293 16.0725 9.89295 16.6911 9.90756C17.6062 9.90545 18.4984 10.194 19.239 10.7315C19.9797 11.269 20.5306 12.0278 20.8122 12.8986C21.0047 13.475 20.9951 13.6365 20.7681 13.6412C20.5549 13.6646 20.344 13.7052 20.1374 13.7625L19.6867 13.8799L19.2755 13.4687C18.1162 12.3093 16.224 12.0588 14.6156 12.8516C13.9852 13.1575 13.4498 13.629 13.0665 14.2156C12.7885 14.638 12.4339 15.4261 12.4339 15.6218C12.4339 15.7606 12.3215 15.83 11.8415 15.9874C10.3553 16.4748 9.48781 17.6004 9.4884 19.0408C9.48903 19.5686 9.59888 20.0905 9.81104 20.5738C9.8817 20.7123 9.92112 20.844 9.89865 20.8665C9.84118 20.924 7.99234 20.9046 7.73672 20.8438Z" fill="#094AB1"/>
</g>
</g>
<defs>
<clipPath id="clip0_420_14139">
<rect width="20" height="20" fill="white" transform="translate(6 6)"/>
</clipPath>
<clipPath id="clip1_420_14139">
<rect width="20" height="11.8322" fill="white" transform="translate(5.7207 9.90747)"/>
</clipPath>
</defs>
</svg>
