<svg width="32" height="32" viewBox="0 0 32 32" fill="none" xmlns="http://www.w3.org/2000/svg">
<g clip-path="url(#clip0_420_14130)">
<path d="M24.6688 12.5297C24.5896 14.2462 23.388 16.5971 21.0639 19.5818C18.6606 22.698 16.6266 24.2568 14.9631 24.2568C13.9333 24.2568 13.0612 23.3062 12.3483 21.4044L10.9225 16.1749C10.3934 14.2723 9.82552 13.3218 9.21868 13.3218C9.08643 13.3218 8.62458 13.599 7.83174 14.1535L7 13.0841C7.86428 12.3245 8.72219 11.5586 9.57514 10.7863C10.7372 9.78264 11.6085 9.25432 12.1899 9.20198C13.5634 9.06972 14.4086 10.0076 14.7254 12.0148C15.0685 14.1804 15.3068 15.5277 15.4384 16.0554C15.8344 17.8511 16.2701 18.7493 16.7454 18.7493C17.1153 18.7493 17.6698 18.168 18.4096 17.0059C19.1494 15.8439 19.5454 14.9591 19.5978 14.3516C19.7031 13.348 19.3071 12.8458 18.4096 12.8458C17.9873 12.8458 17.5509 12.9385 17.1025 13.123C17.9739 10.2968 19.6381 8.92403 22.0944 9.00324C23.9163 9.05629 24.7742 10.2318 24.6688 12.5297Z" fill="#1AB7EA"/>
</g>
<defs>
<clipPath id="clip0_420_14130">
<rect width="20" height="20" fill="white" transform="translate(6 6)"/>
</clipPath>
</defs>
</svg>
