<svg width="32" height="32" viewBox="0 0 32 32" fill="none" xmlns="http://www.w3.org/2000/svg">
<g clip-path="url(#clip0_420_14109)">
<path d="M23.977 16.3347C23.8804 15.8956 23.6663 15.5274 23.3353 15.2298C23.0041 14.9323 22.6228 14.7574 22.1911 14.7053C20.8222 14.5565 18.7575 14.4822 15.9969 14.4822C13.2364 14.4822 11.1754 14.5566 9.81371 14.7053C9.37483 14.7574 8.99166 14.9323 8.66416 15.2298C8.33673 15.5275 8.12095 15.8957 8.01673 16.3347C7.82331 17.1979 7.72656 18.5 7.72656 20.2411C7.72656 22.0119 7.82331 23.314 8.01673 24.1475C8.1136 24.5863 8.32755 24.9548 8.65865 25.2522C8.98975 25.5499 9.37108 25.721 9.80257 25.7656C11.1718 25.9219 13.2366 26 15.997 26C18.7571 26 20.8224 25.9219 22.191 25.7656C22.6227 25.721 23.0021 25.5499 23.3296 25.2522C23.6571 24.9548 23.8729 24.5863 23.977 24.1475C24.1704 23.2842 24.2672 21.9822 24.2672 20.2411C24.2672 18.4703 24.1703 17.1681 23.977 16.3347ZM12.448 17.4622H11.2538V23.8125H10.1378V17.4622H8.96582V16.4131H12.448V17.4622H12.448ZM15.4613 23.8125H14.468V23.2097C14.0662 23.6637 13.6866 23.8906 13.3295 23.8906C12.9873 23.8906 12.7714 23.7528 12.6823 23.4776C12.6228 23.2991 12.5929 23.0273 12.5929 22.6628V18.2991H13.5862V22.3616C13.5862 22.5995 13.59 22.7298 13.5975 22.7522C13.6198 22.9084 13.6979 22.9865 13.8319 22.9865C14.0327 22.9865 14.2449 22.8303 14.468 22.5178V18.2991H15.4613L15.4613 23.8125ZM19.256 22.1606C19.256 22.7038 19.2226 23.076 19.1559 23.277C19.0291 23.686 18.7652 23.8906 18.3634 23.8906C18.0062 23.8906 17.6603 23.686 17.3253 23.277V23.8126H16.3322V16.4131H17.3253V18.835C17.6454 18.4334 17.9913 18.2324 18.3634 18.2324C18.7652 18.2324 19.0291 18.4408 19.1559 18.8574C19.2225 19.0509 19.256 19.4191 19.256 19.9623V22.1606ZM23.0283 21.2456H21.0306V22.2166C21.0306 22.73 21.2016 22.9865 21.5439 22.9865C21.7894 22.9865 21.9383 22.8528 21.9904 22.5847C22.0051 22.5103 22.0127 22.2834 22.0127 21.904H23.0283V22.0491C23.0283 22.4137 23.0207 22.6294 23.0059 22.6965C22.9838 22.8972 22.9059 23.0981 22.7716 23.299C22.5037 23.6934 22.1016 23.8906 21.566 23.8906C21.0528 23.8906 20.651 23.7008 20.3607 23.3215C20.145 23.0462 20.0372 22.6146 20.0372 22.0268V20.0959C20.0372 19.5081 20.1413 19.0765 20.3494 18.8012C20.6398 18.4218 21.0378 18.2321 21.5439 18.2321C22.0425 18.2321 22.4372 18.4218 22.7269 18.8012C22.9281 19.0765 23.0283 19.5081 23.0283 20.0959V21.2456Z" fill="#C4302B"/>
<path d="M17.8264 19.1362C17.6552 19.1362 17.488 19.2184 17.3242 19.3818V22.7411C17.4879 22.9047 17.6552 22.9865 17.8264 22.9865C18.1164 22.9865 18.2619 22.7374 18.2619 22.2387V19.884C18.2619 19.3854 18.1167 19.1362 17.8264 19.1362Z" fill="#C4302B"/>
<path d="M21.5335 19.1362C21.1986 19.1362 21.0312 19.3893 21.0312 19.895V20.4084H22.0356V19.895C22.0356 19.3891 21.8681 19.1362 21.5335 19.1362Z" fill="#C4302B"/>
<path d="M11.8009 10.4531V13.4778H12.9169V10.4531L14.2671 6H13.1287L12.37 8.9353L11.5775 6H10.3945C10.6029 6.62506 10.8447 7.32069 11.12 8.08711C11.4698 9.11383 11.6966 9.90265 11.8009 10.4531Z" fill="black"/>
<path d="M15.7617 13.556C16.2751 13.556 16.6694 13.3662 16.9447 12.9868C17.1531 12.7115 17.2572 12.2724 17.2572 11.6698V9.71663C17.2572 9.12147 17.1528 8.68607 16.9447 8.41076C16.6694 8.0313 16.2751 7.84155 15.7617 7.84155C15.2631 7.84155 14.8724 8.0313 14.5898 8.41076C14.3815 8.68607 14.2773 9.12147 14.2773 9.71663V11.6698C14.2773 12.265 14.3814 12.704 14.5898 12.9867C14.8725 13.3662 15.263 13.556 15.7617 13.556ZM15.2817 9.5157C15.2817 9.00228 15.4417 8.74557 15.7617 8.74557C16.0817 8.74557 16.2415 9.00228 16.2415 9.5157V11.8594C16.2415 12.3804 16.0817 12.6406 15.7617 12.6406C15.4417 12.6406 15.2817 12.3802 15.2817 11.8594V9.5157Z" fill="black"/>
<path d="M18.8318 13.5559C19.2041 13.5559 19.5873 13.3252 19.9816 12.8638V13.4776H20.9972V7.90845H19.9816V12.1606C19.7583 12.4806 19.5464 12.6405 19.3452 12.6405C19.2112 12.6405 19.133 12.5587 19.1108 12.395C19.1034 12.3801 19.0996 12.2498 19.0996 12.0043V7.90845H18.084V12.3059C18.084 12.6852 18.114 12.9642 18.1733 13.1428C18.2702 13.4182 18.4896 13.5559 18.8318 13.5559Z" fill="black"/>
</g>
<defs>
<clipPath id="clip0_420_14109">
<rect width="20" height="20" fill="white" transform="translate(6 6)"/>
</clipPath>
</defs>
</svg>
