<svg width="111" height="80" viewBox="0 0 111 80" fill="none" xmlns="http://www.w3.org/2000/svg">
<rect x="17.5" y="7" width="62" height="30" rx="6" fill="url(#paint0_linear_618_17081)"/>
<rect x="21.5" y="7" width="62" height="30" rx="6" fill="#F7F5FF"/>
<mask id="mask0_618_17081" style="mask-type:alpha" maskUnits="userSpaceOnUse" x="21" y="7" width="63" height="30">
<rect x="21.5" y="7" width="62" height="30" rx="6" fill="url(#paint1_linear_618_17081)"/>
</mask>
<g mask="url(#mask0_618_17081)">
<rect opacity="0.35" x="10.2676" y="-42.7451" width="55.2178" height="95.1751" transform="rotate(-30 10.2676 -42.7451)" fill="url(#paint2_linear_618_17081)"/>
</g>
<rect x="28.5" y="17" width="18" height="3" rx="1.5" fill="#6442ED" fill-opacity="0.5"/>
<rect x="28.5" y="24" width="32" height="3" rx="1.5" fill="#6442ED" fill-opacity="0.5"/>
<rect x="27.5" y="43" width="62" height="30" rx="6" fill="url(#paint3_linear_618_17081)"/>
<rect x="31.5" y="43" width="62" height="30" rx="6" fill="#F7F5FF"/>
<mask id="mask1_618_17081" style="mask-type:alpha" maskUnits="userSpaceOnUse" x="31" y="43" width="63" height="30">
<rect x="31.5" y="43" width="62" height="30" rx="6" fill="url(#paint4_linear_618_17081)"/>
</mask>
<g mask="url(#mask1_618_17081)">
<rect opacity="0.35" x="20.2676" y="-6.74512" width="55.2178" height="95.1751" transform="rotate(-30 20.2676 -6.74512)" fill="url(#paint5_linear_618_17081)"/>
</g>
<rect x="38.5" y="53" width="18" height="3" rx="1.5" fill="#6442ED" fill-opacity="0.5"/>
<rect x="38.5" y="60" width="32" height="3" rx="1.5" fill="#6442ED" fill-opacity="0.5"/>
<defs>
<linearGradient id="paint0_linear_618_17081" x1="30.4167" y1="34.3214" x2="28.4753" y2="18.3289" gradientUnits="userSpaceOnUse">
<stop offset="0.0520833" stop-color="#A598F5"/>
<stop offset="0.3" stop-color="#A598F5"/>
<stop offset="1" stop-color="#EAE7FF"/>
</linearGradient>
<linearGradient id="paint1_linear_618_17081" x1="80" y1="1.03169e-06" x2="46.081" y2="53.5743" gradientUnits="userSpaceOnUse">
<stop stop-color="#5375FF"/>
<stop offset="1" stop-color="#0033FF"/>
</linearGradient>
<linearGradient id="paint2_linear_618_17081" x1="-35.6708" y1="-108.441" x2="50.2103" y2="-0.390081" gradientUnits="userSpaceOnUse">
<stop stop-color="white"/>
<stop offset="1" stop-color="white" stop-opacity="0"/>
</linearGradient>
<linearGradient id="paint3_linear_618_17081" x1="40.4167" y1="70.3214" x2="38.4753" y2="54.3289" gradientUnits="userSpaceOnUse">
<stop offset="0.0520833" stop-color="#A598F5"/>
<stop offset="0.3" stop-color="#A598F5"/>
<stop offset="1" stop-color="#EAE7FF"/>
</linearGradient>
<linearGradient id="paint4_linear_618_17081" x1="90" y1="36" x2="56.081" y2="89.5743" gradientUnits="userSpaceOnUse">
<stop stop-color="#5375FF"/>
<stop offset="1" stop-color="#0033FF"/>
</linearGradient>
<linearGradient id="paint5_linear_618_17081" x1="-25.6708" y1="-72.4406" x2="60.2103" y2="35.6099" gradientUnits="userSpaceOnUse">
<stop stop-color="white"/>
<stop offset="1" stop-color="white" stop-opacity="0"/>
</linearGradient>
</defs>
</svg>
