<svg width="56" height="56" viewBox="0 0 56 56" fill="none" xmlns="http://www.w3.org/2000/svg">
<circle cx="28" cy="28" r="26.5" transform="matrix(1 0 0 -1 0 56)" fill="url(#paint0_linear_108_18730)" stroke="url(#paint1_linear_108_18730)" stroke-width="3"/>
<path d="M26.098 18.8541C26.8817 16.4421 27.2736 15.2361 28.0001 15.2361C28.7267 15.2361 29.1185 16.4421 29.9022 18.8541L31.1433 22.6738C31.3599 23.3404 31.4682 23.6738 31.7311 23.8647C31.994 24.0557 32.3444 24.0557 33.0454 24.0557H37.0616C39.5978 24.0557 40.8659 24.0557 41.0904 24.7467C41.3149 25.4377 40.289 26.1831 38.2372 27.6738L34.988 30.0344C34.4209 30.4465 34.1374 30.6525 34.037 30.9615C33.9366 31.2705 34.0449 31.6038 34.2615 32.2705L35.5026 36.0902C36.2863 38.5022 36.6781 39.7082 36.0903 40.1353C35.5026 40.5623 34.4767 39.8169 32.4249 38.3262L29.1757 35.9656C28.6086 35.5535 28.325 35.3475 28.0001 35.3475C27.6752 35.3475 27.3916 35.5535 26.8245 35.9656L23.5753 38.3262C21.5236 39.8169 20.4977 40.5623 19.9099 40.1353C19.3221 39.7082 19.7139 38.5022 20.4977 36.0902L21.7387 32.2705C21.9554 31.6038 22.0637 31.2705 21.9633 30.9615C21.8628 30.6525 21.5793 30.4465 21.0122 30.0344L17.763 27.6738C15.7112 26.183 14.6853 25.4377 14.9098 24.7467C15.1343 24.0557 16.4024 24.0557 18.9386 24.0557H22.9548C23.6558 24.0557 24.0063 24.0557 24.2691 23.8647C24.532 23.6738 24.6403 23.3404 24.8569 22.6738L26.098 18.8541Z" fill="white"/>
<defs>
<linearGradient id="paint0_linear_108_18730" x1="19.5" y1="53.5" x2="43.5" y2="3.5" gradientUnits="userSpaceOnUse">
<stop stop-color="#D89C00"/>
<stop offset="1" stop-color="#FFE49F"/>
</linearGradient>
<linearGradient id="paint1_linear_108_18730" x1="28" y1="0" x2="28" y2="56" gradientUnits="userSpaceOnUse">
<stop stop-color="#C58304"/>
<stop offset="1" stop-color="#FFECC6"/>
</linearGradient>
</defs>
</svg>
