<svg width="36" height="37" viewBox="0 0 36 37" fill="none" xmlns="http://www.w3.org/2000/svg">
<circle cx="18" cy="18.1963" r="18" fill="white"/>
<path d="M11.1428 21.1403V16.6317C11.1561 15.7455 11.3443 14.8706 11.6964 14.0572C12.0485 13.2438 12.5576 12.5079 13.1946 11.8916C13.8316 11.2753 14.5839 10.7907 15.4085 10.4657C16.2331 10.1407 17.1137 9.98153 17.9999 9.99742C18.8861 9.98153 19.7667 10.1407 20.5913 10.4657C21.4159 10.7907 22.1682 11.2753 22.8052 11.8916C23.4422 12.5079 23.9514 13.2438 24.3035 14.0572C24.6554 14.8706 24.8437 15.7455 24.857 16.6317V21.1403" stroke="#6442ED" stroke-width="1.71429" stroke-linecap="round" stroke-linejoin="round"/>
<path d="M8.57134 18.5691H10.2856C10.513 18.5691 10.731 18.6594 10.8917 18.8201C11.0525 18.9809 11.1428 19.1989 11.1428 19.4262V24.5691C11.1428 24.7964 11.0525 25.0144 10.8917 25.1752C10.731 25.3359 10.513 25.4262 10.2856 25.4262H8.57134C8.11668 25.4262 7.68065 25.2456 7.35916 24.9241C7.03767 24.6026 6.85706 24.1666 6.85706 23.7119V20.2834C6.85706 19.8287 7.03767 19.3927 7.35916 19.0712C7.68065 18.7497 8.11668 18.5691 8.57134 18.5691Z" fill="#6442ED" stroke="#6442ED" stroke-width="1.71429" stroke-linecap="round" stroke-linejoin="round"/>
<path d="M27.4285 25.4262H25.7142C25.4869 25.4262 25.2688 25.3359 25.108 25.1752C24.9474 25.0144 24.8571 24.7964 24.8571 24.5691V19.4262C24.8571 19.1989 24.9474 18.9809 25.108 18.8201C25.2688 18.6594 25.4869 18.5691 25.7142 18.5691H27.4285C27.8831 18.5691 28.3192 18.7497 28.6407 19.0712C28.9621 19.3927 29.1428 19.8287 29.1428 20.2834V23.7119C29.1428 24.1666 28.9621 24.6026 28.6407 24.9241C28.3192 25.2456 27.8831 25.4262 27.4285 25.4262Z" fill="#6442ED" stroke="#6442ED" stroke-width="1.71429" stroke-linecap="round" stroke-linejoin="round"/>
<path d="M15 19.1963H21" stroke="#6442ED" stroke-width="1.7" stroke-linecap="round"/>
<path d="M15 22.1963H21" stroke="#6442ED" stroke-width="1.7" stroke-linecap="round"/>
<path d="M15 25.1963H21" stroke="#6442ED" stroke-width="1.7" stroke-linecap="round"/>
</svg>
