<svg width="72" height="72" viewBox="0 0 72 72" fill="none" xmlns="http://www.w3.org/2000/svg">
<g clip-path="url(#clip0_19_238)">
<path fill-rule="evenodd" clip-rule="evenodd" d="M36.264 14.5846C34.1897 14.5846 32.4297 15.9108 31.776 17.7588C31.6902 18.0022 31.6531 18.26 31.6669 18.5176C31.6807 18.7752 31.7451 19.0276 31.8564 19.2604C32.0813 19.7304 32.4836 20.0919 32.975 20.2653C33.4664 20.4387 34.0065 20.4097 34.4765 20.1849C34.7093 20.0735 34.9178 19.9174 35.0902 19.7255C35.2627 19.5336 35.3956 19.3096 35.4814 19.0663C35.5388 18.904 35.6453 18.7635 35.7861 18.6644C35.9268 18.5653 36.095 18.5124 36.2671 18.5131H38.2C38.376 18.5095 38.5478 18.5676 38.6855 18.6773C38.8232 18.787 38.9182 18.9414 38.954 19.1138C38.9898 19.2862 38.9642 19.4657 38.8816 19.6212C38.799 19.7766 38.6646 19.8983 38.5017 19.9651L34.3563 21.7786C33.5088 22.1494 32.7879 22.7593 32.2816 23.5335C31.7753 24.3077 31.5057 25.2127 31.5057 26.1377V27.7248C31.5057 28.8091 32.3857 29.6891 33.47 29.6891H40.9186C41.4395 29.6891 41.9392 29.4822 42.3075 29.1138C42.6759 28.7454 42.8829 28.2458 42.8829 27.7248C42.8829 27.2039 42.6759 26.7043 42.3075 26.3359C41.9392 25.9675 41.4395 25.7606 40.9186 25.7606H35.5286C35.6162 25.5892 35.7606 25.4537 35.9371 25.3771L40.0794 23.5637C41.0686 23.1348 41.8795 22.3776 42.3751 21.4201C42.8708 20.4626 43.0208 19.3633 42.7999 18.308C42.579 17.2527 42.0008 16.3059 41.1627 15.6275C40.3247 14.9492 39.2782 14.5808 38.2 14.5846H36.264ZM52.9211 14.5846C52.5497 14.5845 52.1826 14.6638 51.8444 14.8172C51.5061 14.9706 51.2046 15.1945 50.96 15.474L44.8 22.5171C44.4652 22.8987 44.2475 23.3687 44.173 23.8709C44.0985 24.3731 44.1704 24.886 44.38 25.3484C44.5896 25.8107 44.9281 26.2028 45.3549 26.4777C45.7817 26.7526 46.2786 26.8986 46.7863 26.8983H51.5949V27.728C51.5949 28.249 51.8018 28.7486 52.1702 29.117C52.5386 29.4853 53.0382 29.6923 53.5591 29.6923C54.0801 29.6923 54.5797 29.4853 54.9481 29.117C55.3165 28.7486 55.5234 28.249 55.5234 27.728V26.8951C56.0244 26.8668 56.4954 26.6478 56.84 26.2831C57.1846 25.9184 57.3766 25.4357 57.3766 24.934C57.3766 24.4323 57.1846 23.9495 56.84 23.5849C56.4954 23.2202 56.0244 23.0012 55.5234 22.9728V17.19C55.5226 16.4995 55.2477 15.8376 54.7592 15.3497C54.2707 14.8618 53.6085 14.5877 52.918 14.5877L52.9211 14.5846ZM51.5949 20.7131L49.6243 22.9666H51.5949V20.7131Z" fill="#6442ED"/>
<path d="M36.5217 56.064C38.151 57.1131 40.0902 57.5729 42.0171 57.3671C43.9439 57.1613 45.7423 56.3021 47.1131 54.9326L48.3074 53.7383C48.8372 53.2028 49.1343 52.48 49.1343 51.7268C49.1343 50.9736 48.8372 50.2509 48.3074 49.7154L43.2789 44.7183C42.7488 44.1905 42.0312 43.8942 41.2831 43.8942C40.5351 43.8942 39.8175 44.1905 39.2874 44.7183C38.752 45.248 38.0292 45.5451 37.276 45.5451C36.5228 45.5451 35.8 45.248 35.2646 44.7183L27.2503 36.704C26.7206 36.1685 26.4235 35.4457 26.4235 34.6926C26.4235 33.9394 26.7206 33.2166 27.2503 32.6811C27.7781 32.151 28.0744 31.4334 28.0744 30.6854C28.0744 29.9374 27.7781 29.2198 27.2503 28.6897L22.4103 23.6611C21.8748 23.1314 21.1521 22.8343 20.3989 22.8343C19.6457 22.8343 18.9229 23.1314 18.3874 23.6611L17.1931 24.8554C15.799 26.207 14.9105 27.9957 14.676 29.9233C14.4415 31.8508 14.8752 33.8004 15.9046 35.4468C21.3849 43.583 28.3855 50.5837 36.5217 56.064Z" fill="#6442ED"/>
</g>
<defs>
<clipPath id="clip0_19_238">
<rect width="44" height="44" fill="white" transform="translate(14 14)"/>
</clipPath>
</defs>
</svg>
