<svg width="16" height="17" viewBox="0 0 16 17" fill="none" xmlns="http://www.w3.org/2000/svg">
<g clip-path="url(#clip0_8_684)">
<path d="M7.46235 15.0474C6.8699 15.4289 6.16472 15.5961 5.46405 15.5212C4.76338 15.4464 4.10943 15.134 3.61093 14.636L3.17664 14.2017C2.98401 14.007 2.87598 13.7441 2.87598 13.4703C2.87598 13.1963 2.98401 12.9336 3.17664 12.7388L5.00521 10.9217C5.19798 10.7298 5.45891 10.622 5.73093 10.622C6.00294 10.622 6.26387 10.7298 6.45664 10.9217C6.65135 11.1143 6.91418 11.2223 7.18807 11.2223C7.46195 11.2223 7.72479 11.1143 7.9195 10.9217L10.8338 8.00739C11.0264 7.81269 11.1345 7.54986 11.1345 7.27596C11.1345 7.00207 11.0264 6.73924 10.8338 6.54453C10.6419 6.35178 10.5341 6.09084 10.5341 5.81882C10.5341 5.5468 10.6419 5.28587 10.8338 5.0931L12.5938 3.26453C12.7885 3.07191 13.0513 2.96387 13.3253 2.96387C13.5991 2.96387 13.862 3.07191 14.0567 3.26453L14.491 3.69882C14.9978 4.19029 15.3209 4.84076 15.4063 5.54168C15.4916 6.2426 15.3338 6.95156 14.9596 7.55024C12.9666 10.5089 10.421 13.0546 7.46235 15.0474Z" stroke="white" stroke-width="1.14286" stroke-linecap="round" stroke-linejoin="round"/>
<path d="M2.28564 6.67822H6.28564V2.67822" stroke="white" stroke-width="1.14286" stroke-linecap="round" stroke-linejoin="round"/>
<path d="M6.28578 6.67815L0.571533 0.963867" stroke="white" stroke-width="1.14286" stroke-linecap="round" stroke-linejoin="round"/>
</g>
<defs>
<clipPath id="clip0_8_684">
<rect width="16" height="16" fill="white" transform="translate(0 0.392578)"/>
</clipPath>
</defs>
</svg>
