<svg width="16" height="17" viewBox="0 0 16 17" fill="none" xmlns="http://www.w3.org/2000/svg">
<g clip-path="url(#clip0_19_691)">
<path d="M8.00227 8.67836C7.84447 8.67836 7.71655 8.55044 7.71655 8.39265C7.71655 8.23485 7.84447 8.10693 8.00227 8.10693" stroke="white" stroke-width="1.14286" stroke-linecap="round" stroke-linejoin="round"/>
<path d="M8.00226 8.67836C8.16005 8.67836 8.28797 8.55044 8.28797 8.39265C8.28797 8.23485 8.16005 8.10693 8.00226 8.10693" stroke="white" stroke-width="1.14286" stroke-linecap="round" stroke-linejoin="round"/>
<path d="M4.85944 8.67836C4.70165 8.67836 4.57373 8.55044 4.57373 8.39265C4.57373 8.23485 4.70165 8.10693 4.85944 8.10693" stroke="white" stroke-width="1.14286" stroke-linecap="round" stroke-linejoin="round"/>
<path d="M4.85944 8.67836C5.01723 8.67836 5.14515 8.55044 5.14515 8.39265C5.14515 8.23485 5.01723 8.10693 4.85944 8.10693" stroke="white" stroke-width="1.14286" stroke-linecap="round" stroke-linejoin="round"/>
<path d="M11.1452 8.67836C10.9874 8.67836 10.8594 8.55044 10.8594 8.39265C10.8594 8.23485 10.9874 8.10693 11.1452 8.10693" stroke="white" stroke-width="1.14286" stroke-linecap="round" stroke-linejoin="round"/>
<path d="M11.1452 8.67836C11.303 8.67836 11.431 8.55044 11.431 8.39265C11.431 8.23485 11.303 8.10693 11.1452 8.10693" stroke="white" stroke-width="1.14286" stroke-linecap="round" stroke-linejoin="round"/>
<path d="M7.99792 1.0332C6.6667 1.03362 5.3605 1.39511 4.21847 2.07917C3.07645 2.76324 2.14135 3.74426 1.51278 4.91774C0.884204 6.09123 0.585701 7.41324 0.649059 8.74296C0.712415 10.0727 1.13526 11.3603 1.87256 12.4687L0.638428 15.7522L4.77106 15.0049C5.7662 15.4912 6.85824 15.7466 7.96582 15.7521C9.07339 15.7576 10.1679 15.513 11.1678 15.0366C12.1677 14.5602 13.0472 13.8642 13.7406 13.0006C14.4341 12.137 14.9238 11.128 15.173 10.0488C15.4222 8.96964 15.4247 7.84812 15.1802 6.76787C14.9356 5.68761 14.4504 4.67648 13.7607 3.80985C13.071 2.94321 12.1945 2.24344 11.1968 1.76267C10.199 1.2819 9.10551 1.03255 7.99792 1.0332Z" stroke="white" stroke-width="1.14286" stroke-linecap="round" stroke-linejoin="round"/>
</g>
<defs>
<clipPath id="clip0_19_691">
<rect width="16" height="16" fill="white" transform="translate(0 0.392578)"/>
</clipPath>
</defs>
</svg>
