<svg width="20" height="20" viewBox="0 0 20 20" fill="none" xmlns="http://www.w3.org/2000/svg">
<g clip-path="url(#clip0_19_51)">
<path d="M4.28571 9.99999V6.24285C4.29686 5.50432 4.45363 4.77527 4.74705 4.09742C5.04045 3.41959 5.46473 2.80632 5.99556 2.29274C6.52639 1.77917 7.15335 1.37537 7.84051 1.10451C8.52765 0.833651 9.26151 0.701041 9.99999 0.714281C10.7385 0.701041 11.4723 0.833651 12.1595 1.10451C12.8466 1.37537 13.4736 1.77917 14.0044 2.29274C14.5353 2.80632 14.9596 3.41959 15.253 4.09742C15.5463 4.77527 15.7031 5.50432 15.7143 6.24285V9.99999" stroke="black" stroke-width="1.42857" stroke-linecap="round" stroke-linejoin="round"/>
<path d="M2.14285 7.85718H3.57142C3.76086 7.85718 3.94255 7.93243 4.07649 8.06639C4.21045 8.20033 4.28571 8.38202 4.28571 8.57146V12.8572C4.28571 13.0466 4.21045 13.2283 4.07649 13.3622C3.94255 13.4962 3.76086 13.5715 3.57142 13.5715H2.14285C1.76396 13.5715 1.40061 13.4209 1.1327 13.153C0.864789 12.8851 0.714279 12.5218 0.714279 12.1429V9.28575C0.714279 8.90686 0.864789 8.54351 1.1327 8.27559C1.40061 8.00769 1.76396 7.85718 2.14285 7.85718Z" stroke="black" stroke-width="1.42857" stroke-linecap="round" stroke-linejoin="round"/>
<path d="M17.8571 13.5715H16.4286C16.2391 13.5715 16.0574 13.4962 15.9234 13.3622C15.7896 13.2283 15.7143 13.0466 15.7143 12.8572V8.57146C15.7143 8.38202 15.7896 8.20033 15.9234 8.06639C16.0574 7.93243 16.2391 7.85718 16.4286 7.85718H17.8571C18.236 7.85718 18.5994 8.00769 18.8673 8.27559C19.1351 8.54351 19.2857 8.90686 19.2857 9.28575V12.1429C19.2857 12.5218 19.1351 12.8851 18.8673 13.153C18.5994 13.4209 18.236 13.5715 17.8571 13.5715Z" stroke="black" stroke-width="1.42857" stroke-linecap="round" stroke-linejoin="round"/>
<path d="M12.8571 17.4999C13.6149 17.4999 14.3416 17.1989 14.8774 16.663C15.4133 16.1272 15.7143 15.4005 15.7143 14.6428V11.4285" stroke="black" stroke-width="1.42857" stroke-linecap="round" stroke-linejoin="round"/>
<path d="M12.8571 17.5001C12.8571 17.9736 12.669 18.4279 12.3341 18.7628C11.9992 19.0976 11.545 19.2858 11.0714 19.2858H8.92857C8.45497 19.2858 8.00077 19.0976 7.66588 18.7628C7.331 18.4279 7.14285 17.9736 7.14285 17.5001C7.14285 17.0265 7.331 16.5722 7.66588 16.2374C8.00077 15.9025 8.45497 15.7144 8.92857 15.7144H11.0714C11.545 15.7144 11.9992 15.9025 12.3341 16.2374C12.669 16.5722 12.8571 17.0265 12.8571 17.5001Z" stroke="black" stroke-width="1.42857" stroke-linecap="round" stroke-linejoin="round"/>
</g>
<defs>
<clipPath id="clip0_19_51">
<rect width="20" height="20" fill="white"/>
</clipPath>
</defs>
</svg>
