<svg width="21" height="20" viewBox="0 0 21 20" fill="none" xmlns="http://www.w3.org/2000/svg">
<path d="M18.0239 19.2858H4.45243C3.88411 19.2858 3.33906 19.0601 2.9372 18.6582C2.53534 18.2564 2.30957 17.7112 2.30957 17.1429C2.30957 16.5746 2.53534 16.0295 2.9372 15.6276C3.33906 15.2258 3.88411 15.0001 4.45243 15.0001H16.5953C16.9741 15.0001 17.3376 14.8495 17.6054 14.5816C17.8733 14.3138 18.0239 13.9504 18.0239 13.5715V2.14293C18.0239 1.76404 17.8733 1.40068 17.6054 1.13277C17.3376 0.864866 16.9741 0.714356 16.5953 0.714356H4.45243C3.89387 0.714157 3.35731 0.932061 2.95706 1.32165C2.55678 1.71124 2.32447 2.24171 2.30957 2.80007V17.0858" stroke="black" stroke-width="1.42857" stroke-linecap="round" stroke-linejoin="round"/>
<path d="M16.5951 15V19.2857" stroke="black" stroke-width="1.42857" stroke-linecap="round" stroke-linejoin="round"/>
<path d="M11.6686 7.14575H14.9758L11.4619 12.1066H15.1825" stroke="black" stroke-width="1.42857" stroke-linecap="round" stroke-linejoin="round"/>
<path d="M5.18335 8.55093L6.70624 3.98227C6.78431 3.74806 7.00348 3.59009 7.25036 3.59009C7.49725 3.59009 7.71644 3.74806 7.79449 3.98227L9.31738 8.55093M5.73455 6.89732H8.76618" stroke="black" stroke-width="1.42857" stroke-linecap="round" stroke-linejoin="round"/>
</svg>
