<svg width="73" height="72" viewBox="0 0 73 72" fill="none" xmlns="http://www.w3.org/2000/svg">
<g clip-path="url(#clip0_19_274)">
<path fill-rule="evenodd" clip-rule="evenodd" d="M15.5715 40.1799C15.1547 40.1799 14.755 40.3455 14.4603 40.6402C14.1656 40.9349 14 41.3346 14 41.7514V53.2856C14 54.536 14.4967 55.7351 15.3808 56.6192C16.2649 57.5033 17.464 57.9999 18.7143 57.9999H53.2857C54.536 57.9999 55.7351 57.5033 56.6192 56.6192C57.5033 55.7351 58 54.536 58 53.2856V41.7514C58 41.3346 57.8345 40.9349 57.5398 40.6402C57.2451 40.3455 56.8454 40.1799 56.4286 40.1799H47.0849C45.8346 40.1799 44.6355 40.6766 43.7514 41.5607C42.8673 42.4448 42.3706 43.6439 42.3706 44.8942C42.3706 47.9554 39.3032 50.3376 35.9906 50.3156C32.7723 50.2936 29.7992 47.9019 29.7992 44.8942C29.7992 43.6439 29.3025 42.4448 28.4184 41.5607C27.5343 40.6766 26.3352 40.1799 25.0849 40.1799H15.5715Z" fill="#EEE9FF"/>
<path fill-rule="evenodd" clip-rule="evenodd" d="M38.3572 16.3885C38.3572 15.7634 38.1088 15.1638 37.6668 14.7218C37.2247 14.2797 36.6252 14.0314 36 14.0314C35.3749 14.0314 34.7753 14.2797 34.3333 14.7218C33.8912 15.1638 33.6429 15.7634 33.6429 16.3885V25.0314H28.1429C27.677 25.0318 27.2217 25.1702 26.8344 25.4293C26.4472 25.6883 26.1454 26.0563 25.9671 26.4868C25.7889 26.9172 25.7422 27.3908 25.833 27.8478C25.9238 28.3048 26.1479 28.7246 26.4772 29.0542L34.3343 36.9114C34.7763 37.3528 35.3754 37.6007 36 37.6007C36.6247 37.6007 37.2238 37.3528 37.6657 36.9114L45.5229 29.0542C45.8521 28.7246 46.0763 28.3048 46.1671 27.8478C46.2578 27.3908 46.2112 26.9172 46.0329 26.4868C45.8547 26.0563 45.5529 25.6883 45.1656 25.4293C44.7784 25.1702 44.3231 25.0318 43.8572 25.0314H38.3572V16.3885Z" fill="#6442ED"/>
</g>
<defs>
<clipPath id="clip0_19_274">
<rect width="44" height="44" fill="white" transform="translate(14 14)"/>
</clipPath>
</defs>
</svg>
