<svg width="24" height="25" viewBox="0 0 24 25" fill="none" xmlns="http://www.w3.org/2000/svg">
<g clip-path="url(#clip0_19_716)">
<path fill-rule="evenodd" clip-rule="evenodd" d="M11.9542 24.3925L11.9649 24.3925H11.9612L11.9542 24.3925ZM12.0388 24.3925H12.0351L12.0458 24.3925L12.0388 24.3925ZM11.9175 24.3923L11.9291 24.3923H11.9224L11.9175 24.3923ZM12.0776 24.3923H12.0709L12.0825 24.3923L12.0776 24.3923ZM11.8822 24.392L11.8899 24.3921L11.8837 24.392H11.8822ZM12.1163 24.392L12.1101 24.3921L12.1178 24.392H12.1163ZM12.155 24.3916L12.1523 24.3916L12.1627 24.3915L12.155 24.3916ZM11.8372 24.3915L11.8477 24.3916L11.845 24.3916L11.8372 24.3915ZM12.1937 24.391L12.1874 24.3911L12.2003 24.3909L12.1937 24.391ZM11.7997 24.3909L11.8126 24.3911L11.8063 24.391L11.7997 24.3909ZM12.2323 24.3904L12.2238 24.3905L12.2357 24.3903L12.2323 24.3904ZM11.7643 24.3903L11.7762 24.3905L11.7677 24.3904L11.7643 24.3903ZM11.7204 24.3894L11.7309 24.3896L11.7291 24.3896L11.7204 24.3894ZM12.2709 24.3896L12.2691 24.3896L12.2796 24.3894L12.2709 24.3896ZM11.6819 24.3884L11.6963 24.3888L11.6905 24.3886L11.6819 24.3884ZM12.3095 24.3886L12.3037 24.3888L12.3181 24.3884L12.3095 24.3886ZM12.3481 24.3876L12.3387 24.3879L12.3535 24.3875L12.3481 24.3876ZM11.6465 24.3875L11.6613 24.3879L11.6519 24.3876L11.6465 24.3875ZM11.6128 24.3864L11.6233 24.3868L11.6134 24.3864L11.6043 24.3862L11.6128 24.3864ZM12.3866 24.3864L12.3767 24.3868L12.3872 24.3864L12.3957 24.3862L12.3866 24.3864ZM12.4251 24.3852L12.4199 24.3854L12.436 24.3848L12.4251 24.3852ZM11.564 24.3848L11.5801 24.3854L11.5749 24.3852L11.564 24.3848ZM11.5289 24.3835L11.5458 24.3841L11.5364 24.3838L11.5289 24.3835ZM12.4636 24.3838L12.4542 24.3841L12.4711 24.3835L12.4636 24.3838ZM11.4944 24.3821L11.511 24.3828L11.498 24.3823L11.4944 24.3821ZM12.502 24.3823L12.489 24.3828L12.5056 24.3821L12.502 24.3823ZM11.4461 24.38L11.4639 24.3808L11.4596 24.3806L11.4461 24.38ZM12.5404 24.3806L12.5361 24.3808L12.5539 24.38L12.5404 24.3806ZM11.4115 24.3784L11.43 24.3792L11.4212 24.3788L11.4115 24.3784ZM12.5788 24.3788L12.57 24.3792L12.5885 24.3784L12.5788 24.3788ZM11.3774 24.3766L11.396 24.3776L11.3829 24.377L11.3774 24.3766ZM12.6171 24.377L12.604 24.3776L12.6226 24.3766L12.6171 24.377ZM12.6555 24.375L12.6385 24.3758L12.6535 24.375L12.6713 24.3741L12.6555 24.375ZM11.3465 24.375L11.3615 24.3758L11.3445 24.375L11.3287 24.3741L11.3465 24.375ZM12.6937 24.3728L12.6862 24.3732L12.7052 24.3721L12.6937 24.3728ZM11.2948 24.3721L11.3138 24.3732L11.3063 24.3728L11.2948 24.3721ZM11.2609 24.3701L11.2799 24.3713L11.268 24.3706L11.2609 24.3701ZM12.732 24.3706L12.7201 24.3713L12.7391 24.3701L12.732 24.3706ZM11.2286 24.3681L11.2457 24.3692L11.2298 24.3682L11.2138 24.3672L11.2286 24.3681ZM12.7702 24.3682L12.7543 24.3692L12.7714 24.3681L12.7862 24.3672L12.7702 24.3682ZM12.8084 24.3657L12.8026 24.3661L12.8208 24.3649L12.8084 24.3657ZM11.1792 24.3649L11.1974 24.3661L11.1916 24.3657L11.1792 24.3649ZM11.1454 24.3625L11.1632 24.3638L11.1535 24.3631L11.1454 24.3625ZM12.8465 24.3631L12.8368 24.3638L12.8546 24.3625L12.8465 24.3631ZM11.1117 24.3601L11.1281 24.3613L11.1154 24.3604L11.1117 24.3601ZM12.8846 24.3604L12.8719 24.3613L12.8883 24.3601L12.8846 24.3604ZM11.0664 24.3567L11.0807 24.3578L11.0773 24.3576L11.0664 24.3567ZM12.9227 24.3576L12.9193 24.3578L12.9336 24.3567L12.9227 24.3576ZM12.9608 24.3546L12.9539 24.3551L12.9685 24.354L12.9608 24.3546ZM11.0315 24.354L11.0461 24.3551L11.0392 24.3546L11.0315 24.354ZM10.9975 24.3512L11.0099 24.3522L11.0012 24.3515L10.9975 24.3512ZM12.9988 24.3515L12.9901 24.3522L13.0025 24.3512L12.9988 24.3515ZM10.9601 24.348L10.9638 24.3484L10.9632 24.3483L10.9601 24.348ZM13.0368 24.3483L13.0362 24.3484L13.0399 24.348L13.0368 24.3483ZM13.0748 24.345L13.0714 24.3453L13.0799 24.3445L13.0748 24.345ZM10.9201 24.3445L10.9286 24.3453L10.9253 24.345L10.9201 24.3445ZM10.885 24.3413L10.8913 24.342L10.8874 24.3416L10.885 24.3413ZM13.1126 24.3416L13.1087 24.342L13.115 24.3413L13.1126 24.3416ZM10.125 24.2467C4.3913 23.3454 0 18.3778 0 12.3926C0 5.76961 5.37703 0.392578 12 0.392578C18.623 0.392578 24 5.76961 24 12.3926C24 18.3778 19.6087 23.3454 13.875 24.2467V15.8613H16.6711L17.2031 12.3926H13.875V10.1416C13.875 9.19261 14.3399 8.26758 15.8306 8.26758H17.3438V5.31445C17.3438 5.31445 15.9705 5.08008 14.6576 5.08008C11.9165 5.08008 10.125 6.74133 10.125 9.74883V12.3926H7.07812V15.8613H10.125V24.2467Z" fill="white"/>
</g>
<defs>
<clipPath id="clip0_19_716">
<rect width="24" height="24" fill="white" transform="translate(0 0.392578)"/>
</clipPath>
</defs>
</svg>
