<svg width="72" height="72" viewBox="0 0 72 72" fill="none" xmlns="http://www.w3.org/2000/svg">
<g clip-path="url(#clip0_19_227)">
<path d="M55.4233 56.3277C54.1036 52.2131 51.5117 48.624 48.0212 46.0776C44.5303 43.5313 40.3211 42.1592 36.0003 42.1592C31.6795 42.1592 27.4703 43.5313 23.9795 46.0776C20.4888 48.624 17.8969 52.2131 16.5775 56.3277H55.4233Z" fill="url(#paint0_linear_19_227)" fill-opacity="0.5"/>
<path d="M55.4233 56.3277C54.1036 52.2131 51.5117 48.624 48.0212 46.0776C44.5303 43.5313 40.3211 42.1592 36.0003 42.1592C31.6795 42.1592 27.4703 43.5313 23.9795 46.0776C20.4888 48.624 17.8969 52.2131 16.5775 56.3277H55.4233Z" fill="#6442ED"/>
<path d="M55.4233 56.3277C54.1036 52.2131 51.5117 48.624 48.0212 46.0776C44.5303 43.5313 40.3211 42.1592 36.0003 42.1592C31.6795 42.1592 27.4703 43.5313 23.9795 46.0776C20.4888 48.624 17.8969 52.2131 16.5775 56.3277H55.4233Z" fill="url(#paint1_linear_19_227)" fill-opacity="0.6"/>
<path d="M36 42.1856C43.3458 42.1856 49.3009 36.2306 49.3009 28.8848C49.3009 21.539 43.3458 15.5841 36 15.5841C28.6542 15.5841 22.6992 21.539 22.6992 28.8848C22.6992 36.2306 28.6542 42.1856 36 42.1856Z" fill="url(#paint2_linear_19_227)" fill-opacity="0.5"/>
<path d="M36 42.1856C43.3458 42.1856 49.3009 36.2306 49.3009 28.8848C49.3009 21.539 43.3458 15.5841 36 15.5841C28.6542 15.5841 22.6992 21.539 22.6992 28.8848C22.6992 36.2306 28.6542 42.1856 36 42.1856Z" fill="#6442ED"/>
<path d="M36 42.1856C43.3458 42.1856 49.3009 36.2306 49.3009 28.8848C49.3009 21.539 43.3458 15.5841 36 15.5841C28.6542 15.5841 22.6992 21.539 22.6992 28.8848C22.6992 36.2306 28.6542 42.1856 36 42.1856Z" fill="url(#paint3_linear_19_227)" fill-opacity="0.6"/>
<path d="M40.3434 34.0313C40.3434 34.0313 39.2398 36.2028 36.0003 36.2028C32.7608 36.2028 31.6571 34.0313 31.6571 34.0313" stroke="white" stroke-width="3.14286" stroke-linecap="round" stroke-linejoin="round"/>
</g>
<defs>
<linearGradient id="paint0_linear_19_227" x1="55.4233" y1="52.6641" x2="16.5775" y2="52.6641" gradientUnits="userSpaceOnUse">
<stop stop-color="#6A7ABF"/>
<stop offset="0.125" stop-color="#D5D7EB"/>
<stop offset="0.875" stop-color="#AFB5DB"/>
<stop offset="1" stop-color="#233DA1"/>
</linearGradient>
<linearGradient id="paint1_linear_19_227" x1="36.0004" y1="56.9408" x2="36.0004" y2="51.7819" gradientUnits="userSpaceOnUse">
<stop offset="0.025" stop-color="#2C47AD" stop-opacity="0"/>
<stop offset="0.0251" stop-color="#2C47AD"/>
<stop offset="0.432433" stop-color="#2D47AE" stop-opacity="0"/>
</linearGradient>
<linearGradient id="paint2_linear_19_227" x1="49.3009" y1="35.3071" x2="22.6992" y2="35.3071" gradientUnits="userSpaceOnUse">
<stop stop-color="#6A7ABF"/>
<stop offset="0.125" stop-color="#D5D7EB"/>
<stop offset="0.875" stop-color="#AFB5DB"/>
<stop offset="1" stop-color="#233DA1"/>
</linearGradient>
<linearGradient id="paint3_linear_19_227" x1="36" y1="43.3367" x2="36" y2="33.6507" gradientUnits="userSpaceOnUse">
<stop offset="0.025" stop-color="#2C47AD" stop-opacity="0"/>
<stop offset="0.0251" stop-color="#2C47AD"/>
<stop offset="0.432433" stop-color="#2D47AE" stop-opacity="0"/>
</linearGradient>
<clipPath id="clip0_19_227">
<rect width="44" height="44" fill="white" transform="translate(14 14)"/>
</clipPath>
</defs>
</svg>
