<svg width="20" height="20" viewBox="0 0 20 20" fill="none" xmlns="http://www.w3.org/2000/svg">
<circle cx="10" cy="10" r="7.5" stroke="white"/>
<path d="M10.003 8.61133C10.1872 8.61133 10.3639 8.68449 10.4941 8.81473C10.6243 8.94496 10.6975 9.12159 10.6975 9.30577V13.4724C10.6975 13.6566 10.6243 13.8333 10.4941 13.9635C10.3639 14.0937 10.1872 14.1669 10.003 14.1669C9.81886 14.1669 9.64223 14.0937 9.51199 13.9635C9.38176 13.8333 9.30859 13.6566 9.30859 13.4724V9.30577C9.30859 9.12159 9.38176 8.94496 9.51199 8.81473C9.64223 8.68449 9.81886 8.61133 10.003 8.61133Z" fill="white"/>
<path d="M10.0012 7.56966C10.138 7.56966 10.2735 7.54272 10.3998 7.49037C10.5262 7.43802 10.6411 7.36129 10.7378 7.26456C10.8345 7.16784 10.9112 7.053 10.9636 6.92662C11.0159 6.80024 11.0429 6.66479 11.0429 6.52799C11.0429 6.3912 11.0159 6.25575 10.9636 6.12937C10.9112 6.00299 10.8345 5.88815 10.7378 5.79143C10.6411 5.6947 10.5262 5.61797 10.3998 5.56562C10.2735 5.51327 10.138 5.48633 10.0012 5.48633C9.72532 5.48633 9.46072 5.59593 9.26563 5.79102C9.07054 5.98611 8.96094 6.25071 8.96094 6.52661C8.96094 6.8025 9.07054 7.0671 9.26563 7.26219C9.46072 7.45728 9.72532 7.56688 10.0012 7.56688V7.56966Z" fill="white"/>
</svg>
