<svg width="24" height="25" viewBox="0 0 24 25" fill="none" xmlns="http://www.w3.org/2000/svg">
<g clip-path="url(#clip0_19_714)">
<path fill-rule="evenodd" clip-rule="evenodd" d="M12 0.392578C18.623 0.392578 24 5.76961 24 12.3926C24 19.0155 18.623 24.3926 12 24.3926C5.37703 24.3926 0 19.0155 0 12.3926C0 5.76961 5.37703 0.392578 12 0.392578ZM8.24827 19.1365V9.76523H5.13277V19.1365H8.24827ZM19.4805 19.1365V13.7625C19.4805 10.884 17.9436 9.54487 15.8941 9.54487C14.2415 9.54487 13.5013 10.4537 13.0868 11.0921V9.76523H9.97209C10.0134 10.6445 9.97209 19.1365 9.97209 19.1365H13.0868V13.9029C13.0868 13.6228 13.1069 13.3428 13.1895 13.1426C13.4142 12.5831 13.9271 12.0036 14.7877 12.0036C15.9143 12.0036 16.3656 12.8632 16.3656 14.1225V19.1365H19.4805ZM6.71156 5.24648C5.64562 5.24648 4.9492 5.94727 4.9492 6.86578C4.9492 7.76494 5.62444 8.48503 6.67031 8.48503H6.69042C7.77675 8.48503 8.45292 7.76494 8.45292 6.86578C8.43277 5.94727 7.7768 5.24648 6.71156 5.24648Z" fill="white"/>
</g>
<defs>
<clipPath id="clip0_19_714">
<rect width="24" height="24" fill="white" transform="translate(0 0.392578)"/>
</clipPath>
</defs>
</svg>
