<svg width="21" height="20" viewBox="0 0 21 20" fill="none" xmlns="http://www.w3.org/2000/svg">
<g clip-path="url(#clip0_19_144)">
<path d="M7.26191 12.9431L18.2333 16.6002C18.4482 16.671 18.6768 16.6899 18.9003 16.655C19.1238 16.6203 19.3359 16.5329 19.5191 16.4002C19.7036 16.2687 19.8543 16.0953 19.9588 15.894C20.0631 15.6929 20.1181 15.4697 20.1191 15.243V3.48592C20.1181 3.25927 20.0631 3.03613 19.9588 2.83493C19.8543 2.63373 19.7036 2.46023 19.5191 2.32877C19.3346 2.1984 19.1221 2.1136 18.8985 2.08132C18.6751 2.04905 18.4471 2.0702 18.2333 2.14306L7.26191 5.8002V12.9431Z" stroke="black" stroke-width="1.42857" stroke-linecap="round" stroke-linejoin="round"/>
<path d="M1.54762 9.37148C1.54762 9.84048 1.64 10.3049 1.81948 10.7382C1.99896 11.1715 2.26204 11.5652 2.59367 11.8969C3.26344 12.5666 4.17185 12.9429 5.11905 12.9429H7.26191V5.80005H5.11905C4.65005 5.80005 4.18564 5.89242 3.75232 6.07191C3.31902 6.25139 2.92531 6.51446 2.59367 6.84609C1.9239 7.51586 1.54762 8.42428 1.54762 9.37148Z" stroke="black" stroke-width="1.42857" stroke-linecap="round" stroke-linejoin="round"/>
<path d="M5.11905 12.9431V14.3717C5.11905 14.8407 5.21142 15.3052 5.39091 15.7385C5.57039 16.1717 5.83346 16.5655 6.16509 16.897C6.49673 17.2287 6.89045 17.4917 7.32375 17.6713C7.75706 17.8507 8.22148 17.9432 8.69048 17.9432" stroke="black" stroke-width="1.42857" stroke-linecap="round" stroke-linejoin="round"/>
</g>
<defs>
<clipPath id="clip0_19_144">
<rect width="20" height="20" fill="white" transform="translate(0.833374)"/>
</clipPath>
</defs>
</svg>
