<svg width="21" height="20" viewBox="0 0 21 20" fill="none" xmlns="http://www.w3.org/2000/svg">
<path d="M14.2381 9.28578C14.2381 10.233 13.8618 11.1414 13.192 11.8112C12.5222 12.4809 11.6138 12.8572 10.6666 12.8572C9.71943 12.8572 8.81101 12.4809 8.14124 11.8112C7.47147 11.1414 7.0952 10.233 7.0952 9.28578V4.28578C7.0952 3.33858 7.47147 2.43017 8.14124 1.7604C8.81101 1.09063 9.71943 0.714355 10.6666 0.714355C11.6138 0.714355 12.5222 1.09063 13.192 1.7604C13.8618 2.43017 14.2381 3.33858 14.2381 4.28578V9.28578Z" stroke="black" stroke-width="1.42857" stroke-linecap="round" stroke-linejoin="round"/>
<path d="M17.8095 10C17.8113 10.8447 17.6463 11.6815 17.3241 12.4623C17.0016 13.2431 16.5282 13.9526 15.9308 14.5499C15.3335 15.1471 14.6241 15.6207 13.8433 15.943C13.0625 16.2654 12.2257 16.4304 11.3809 16.4286H9.95236C9.10762 16.4304 8.27083 16.2654 7.49003 15.943C6.70923 15.6207 5.9998 15.1471 5.40247 14.5499C4.80515 13.9526 4.3317 13.2431 4.0093 12.4623C3.6869 11.6815 3.5219 10.8447 3.52379 10" stroke="black" stroke-width="1.42857" stroke-linecap="round" stroke-linejoin="round"/>
<path d="M10.6666 16.4287V19.2859" stroke="black" stroke-width="1.42857" stroke-linecap="round" stroke-linejoin="round"/>
</svg>
