<svg width="20" height="20" viewBox="0 0 20 20" fill="none" xmlns="http://www.w3.org/2000/svg">
<path d="M14.5567 1.33716H5.45245C4.15245 1.33716 3.00245 2.21287 2.79816 3.49716C2.12674 7.71573 2.34959 12.8257 2.89817 17.4357C3.03245 18.5514 4.35388 19.0457 5.20531 18.3114L6.99817 16.7686L8.37388 18.2686C8.57537 18.488 8.8204 18.663 9.09332 18.7824C9.36624 18.9018 9.66105 18.963 9.95894 18.962C10.2568 18.9611 10.5513 18.898 10.8234 18.7769C11.0956 18.6558 11.3395 18.4793 11.5396 18.2586L12.8896 16.77L14.7453 18.35C15.5939 19.0743 16.901 18.59 17.041 17.4829C17.6196 12.9243 17.8967 7.56859 17.1625 3.40287C16.9439 2.16144 15.8182 1.33716 14.5567 1.33716Z" stroke="#161616" stroke-width="1.7" stroke-linecap="round" stroke-linejoin="round"/>
<path d="M11.954 6.9272C11.954 6.9272 11.2197 6.1072 10.0283 6.21006C8.83688 6.31291 8.26259 7.04434 8.26259 7.77863C8.26259 9.91863 11.954 8.43577 11.954 10.6301C11.954 11.7615 9.50545 12.5601 8.04688 11.2301M10.1754 4.77148V6.20006M10.1754 11.9115V13.3429" stroke="#161616" stroke-width="1.7" stroke-linecap="round" stroke-linejoin="round"/>
</svg>
