<svg width="21" height="20" viewBox="0 0 21 20" fill="none" xmlns="http://www.w3.org/2000/svg">
<path d="M10.4999 5.38663C11.7654 5.38663 12.7913 4.3607 12.7913 3.09517C12.7913 1.82963 11.7654 0.803711 10.4999 0.803711C9.23432 0.803711 8.2084 1.82963 8.2084 3.09517C8.2084 4.3607 9.23432 5.38663 10.4999 5.38663Z" stroke="black" stroke-width="1.42857" stroke-linecap="round" stroke-linejoin="round"/>
<path d="M3.29803 9.96948H17.7014" stroke="black" stroke-width="1.42857" stroke-linecap="round" stroke-linejoin="round"/>
<path d="M4.60748 9.96948L5.26218 19.1353" stroke="black" stroke-width="1.42857" stroke-linecap="round" stroke-linejoin="round"/>
<path d="M16.3921 9.96948L15.7373 19.1353" stroke="black" stroke-width="1.42857" stroke-linecap="round" stroke-linejoin="round"/>
<path d="M10.4999 12.2727L11.3422 13.9794L13.2256 14.253L11.8627 15.5815L12.1845 17.4574L10.4999 16.5717L8.8153 17.4574L9.13703 15.5815L7.77417 14.253L9.6576 13.9794L10.4999 12.2727Z" stroke="black" stroke-width="1.42857" stroke-linecap="round" stroke-linejoin="round"/>
<path d="M14.7855 10.0001C14.7855 7.63314 12.8668 5.71436 10.4998 5.71436C8.1329 5.71436 6.21411 7.63314 6.21411 10.0001" stroke="black" stroke-width="1.42857" stroke-linecap="round" stroke-linejoin="round"/>
</svg>
