<svg width="72" height="72" viewBox="0 0 72 72" fill="none" xmlns="http://www.w3.org/2000/svg">
<g clip-path="url(#clip0_19_211)">
<path d="M15.2097 43.5143L27.4354 55.7401C27.8774 56.1813 28.4765 56.4293 29.1011 56.4293C29.7257 56.4293 30.3249 56.1813 30.7668 55.7401L55.0296 31.4772C55.1516 31.3606 55.2459 31.2183 55.3056 31.0606C55.3656 30.9029 55.3892 30.7338 55.3754 30.5657L53.5211 18.5286C53.506 18.2417 53.3853 17.9707 53.1823 17.7676C52.9789 17.5645 52.708 17.4437 52.4211 17.4286L40.384 15.5743C40.2159 15.5604 40.0468 15.5842 39.8891 15.644C39.7314 15.7038 39.5891 15.7981 39.4725 15.92L15.2097 40.1829C14.7683 40.6248 14.5203 41.224 14.5203 41.8486C14.5203 42.4732 14.7683 43.0723 15.2097 43.5143Z" fill="url(#paint0_linear_19_211)" fill-opacity="0.5"/>
<path d="M15.2097 43.5143L27.4354 55.7401C27.8774 56.1813 28.4765 56.4293 29.1011 56.4293C29.7257 56.4293 30.3249 56.1813 30.7668 55.7401L55.0296 31.4772C55.1516 31.3606 55.2459 31.2183 55.3056 31.0606C55.3656 30.9029 55.3892 30.7338 55.3754 30.5657L53.5211 18.5286C53.506 18.2417 53.3853 17.9707 53.1823 17.7676C52.9789 17.5645 52.708 17.4437 52.4211 17.4286L40.384 15.5743C40.2159 15.5604 40.0468 15.5842 39.8891 15.644C39.7314 15.7038 39.5891 15.7981 39.4725 15.92L15.2097 40.1829C14.7683 40.6248 14.5203 41.224 14.5203 41.8486C14.5203 42.4732 14.7683 43.0723 15.2097 43.5143Z" fill="#6442ED"/>
<path d="M15.2097 43.5143L27.4354 55.7401C27.8774 56.1813 28.4765 56.4293 29.1011 56.4293C29.7257 56.4293 30.3249 56.1813 30.7668 55.7401L55.0296 31.4772C55.1516 31.3606 55.2459 31.2183 55.3056 31.0606C55.3656 30.9029 55.3892 30.7338 55.3754 30.5657L53.5211 18.5286C53.506 18.2417 53.3853 17.9707 53.1823 17.7676C52.9789 17.5645 52.708 17.4437 52.4211 17.4286L40.384 15.5743C40.2159 15.5604 40.0468 15.5842 39.8891 15.644C39.7314 15.7038 39.5891 15.7981 39.4725 15.92L15.2097 40.1829C14.7683 40.6248 14.5203 41.224 14.5203 41.8486C14.5203 42.4732 14.7683 43.0723 15.2097 43.5143Z" fill="url(#paint1_linear_19_211)" fill-opacity="0.6"/>
<path d="M44.0297 28.4914C43.1619 28.4914 42.4583 27.7878 42.4583 26.9199C42.4583 26.0521 43.1619 25.3485 44.0297 25.3485C44.8977 25.3485 45.601 26.0521 45.601 26.9199C45.601 27.7878 44.8977 28.4914 44.0297 28.4914Z" stroke="white" stroke-width="3.14286" stroke-linecap="round" stroke-linejoin="round"/>
</g>
<defs>
<linearGradient id="paint0_linear_19_211" x1="55.3792" y1="45.8642" x2="14.5203" y2="45.8642" gradientUnits="userSpaceOnUse">
<stop stop-color="#6A7ABF"/>
<stop offset="0.125" stop-color="#D5D7EB"/>
<stop offset="0.875" stop-color="#AFB5DB"/>
<stop offset="1" stop-color="#233DA1"/>
</linearGradient>
<linearGradient id="paint1_linear_19_211" x1="34.9498" y1="58.1973" x2="34.9498" y2="43.32" gradientUnits="userSpaceOnUse">
<stop offset="0.025" stop-color="#2C47AD" stop-opacity="0"/>
<stop offset="0.0251" stop-color="#2C47AD"/>
<stop offset="0.432433" stop-color="#2D47AE" stop-opacity="0"/>
</linearGradient>
<clipPath id="clip0_19_211">
<rect width="44" height="44" fill="white" transform="translate(13.5 14)"/>
</clipPath>
</defs>
</svg>
