<svg width="73" height="72" viewBox="0 0 73 72" fill="none" xmlns="http://www.w3.org/2000/svg">
<g clip-path="url(#clip0_19_249)">
<path d="M21.8572 14C20.6069 14 19.4078 14.4967 18.5237 15.3808C17.6396 16.2649 17.1429 17.464 17.1429 18.7143V53.2857C17.1429 54.536 17.6396 55.7351 18.5237 56.6192C19.4078 57.5033 20.6069 58 21.8572 58H50.1429C51.3932 58 52.5923 57.5033 53.4764 56.6192C54.3605 55.7351 54.8572 54.536 54.8572 53.2857V28.1429C54.8576 27.9364 54.8173 27.7318 54.7385 27.5409C54.6598 27.35 54.5442 27.1765 54.3984 27.0303L41.8269 14.4589C41.6807 14.313 41.5072 14.1974 41.3163 14.1187C41.1254 14.04 40.9209 13.9996 40.7144 14H21.8572Z" fill="#EEE9FF"/>
<path fill-rule="evenodd" clip-rule="evenodd" d="M37.7491 23.9024L37.4253 23.5755C37.2429 23.3931 37.0264 23.2483 36.788 23.1496C36.5497 23.0508 36.2942 23 36.0362 23C35.7782 23 35.5227 23.0508 35.2844 23.1496C35.046 23.2483 34.8295 23.3931 34.6471 23.5755L34.3202 23.9024C33.9541 24.1415 33.6416 24.454 33.4025 24.8201L27.5756 30.6469C27.3008 30.9216 27.1137 31.2717 27.0379 31.6528C26.9621 32.0338 27.001 32.4289 27.1497 32.7878C27.2984 33.1468 27.5502 33.4536 27.8733 33.6694C28.1964 33.8853 28.5762 34.0004 28.9648 34.0004H32.8933V45.3932C32.8933 46.2268 33.2245 47.0262 33.8139 47.6156C34.4033 48.205 35.2027 48.5361 36.0362 48.5361C36.8697 48.5361 37.6691 48.205 38.2585 47.6156C38.8479 47.0262 39.1791 46.2268 39.1791 45.3932V34.0004H43.1076C43.4962 34.0004 43.876 33.8853 44.1991 33.6694C44.5222 33.4536 44.774 33.1468 44.9227 32.7878C45.0714 32.4289 45.1103 32.0338 45.0345 31.6528C44.9587 31.2717 44.7716 30.9216 44.4968 30.6469L38.6699 24.8232C38.4308 24.4571 38.1183 24.1446 37.7522 23.9055L37.7491 23.9024Z" fill="#6442ED"/>
</g>
<defs>
<clipPath id="clip0_19_249">
<rect width="44" height="44" fill="white" transform="translate(14.0001 14)"/>
</clipPath>
</defs>
</svg>
