<svg width="32" height="32" viewBox="0 0 32 32" fill="none" xmlns="http://www.w3.org/2000/svg">
<path d="M6.15917 5.7257L14.281 2.9373C14.7931 2.76148 15.3492 2.76148 15.8613 2.9373L23.9831 5.7257C24.4747 5.89445 24.8047 6.35677 24.8047 6.87647V16.7564C24.8047 19.4774 22.6889 24.2957 15.0711 26.91C7.45336 24.2957 5.33755 19.4774 5.33755 16.7564V6.87647C5.33755 6.35677 5.66764 5.89445 6.15917 5.7257Z" fill="url(#paint0_linear_19_81)" fill-opacity="0.5"/>
<path d="M6.15917 5.7257L14.281 2.9373C14.7931 2.76148 15.3492 2.76148 15.8613 2.9373L23.9831 5.7257C24.4747 5.89445 24.8047 6.35677 24.8047 6.87647V16.7564C24.8047 19.4774 22.6889 24.2957 15.0711 26.91C7.45336 24.2957 5.33755 19.4774 5.33755 16.7564V6.87647C5.33755 6.35677 5.66764 5.89445 6.15917 5.7257Z" fill="#6442ED"/>
<path d="M6.15917 5.7257L14.281 2.9373C14.7931 2.76148 15.3492 2.76148 15.8613 2.9373L23.9831 5.7257C24.4747 5.89445 24.8047 6.35677 24.8047 6.87647V16.7564C24.8047 19.4774 22.6889 24.2957 15.0711 26.91C7.45336 24.2957 5.33755 19.4774 5.33755 16.7564V6.87647C5.33755 6.35677 5.66764 5.89445 6.15917 5.7257Z" fill="url(#paint1_linear_19_81)" fill-opacity="0.6"/>
<path d="M19.7082 9.72339L13.2075 17.8492L9.95721 15.4115" stroke="white" stroke-width="2.19006" stroke-linecap="round" stroke-linejoin="round"/>
<defs>
<linearGradient id="paint0_linear_19_81" x1="24.8047" y1="20.7078" x2="5.33755" y2="20.7078" gradientUnits="userSpaceOnUse">
<stop stop-color="#6A7ABF"/>
<stop offset="0.125" stop-color="#D5D7EB"/>
<stop offset="0.875" stop-color="#AFB5DB"/>
<stop offset="1" stop-color="#233DA1"/>
</linearGradient>
<linearGradient id="paint1_linear_19_81" x1="15.0711" y1="28.0529" x2="15.0711" y2="19.1926" gradientUnits="userSpaceOnUse">
<stop offset="0.025" stop-color="#2C47AD" stop-opacity="0"/>
<stop offset="0.0251" stop-color="#2C47AD"/>
<stop offset="0.432433" stop-color="#2D47AE" stop-opacity="0"/>
</linearGradient>
</defs>
</svg>
