<svg width="21" height="20" viewBox="0 0 21 20" fill="none" xmlns="http://www.w3.org/2000/svg">
<g clip-path="url(#clip0_19_118)">
<path d="M7.49579 12.5205V7.4796C7.49579 6.89732 8.17355 6.52926 8.72505 6.81205L13.6407 9.3325C14.2081 9.62348 14.2081 10.3767 13.6407 10.6676L8.72505 13.1881C8.17355 13.4709 7.49579 13.1028 7.49579 12.5205Z" stroke="black" stroke-width="1.42857" stroke-linecap="round" stroke-linejoin="round"/>
<path d="M1.20427 8.77002C1.15831 9.14279 1.13464 9.52246 1.13464 9.90768C1.13464 10.2929 1.15831 10.6726 1.20427 11.0453" stroke="black" stroke-width="1.42857" stroke-linecap="round" stroke-linejoin="round"/>
<path d="M4.784 2.56979C5.08385 2.3436 5.40082 2.13326 5.73442 1.94066C6.06802 1.74806 6.40867 1.57871 6.75448 1.43213" stroke="black" stroke-width="1.42857" stroke-linecap="round" stroke-linejoin="round"/>
<path d="M1.85889 6.32766C2.00546 5.98185 2.1748 5.64121 2.36742 5.30761C2.56002 4.97401 2.77034 4.65703 2.99654 4.35718" stroke="black" stroke-width="1.42857" stroke-linecap="round" stroke-linejoin="round"/>
<path d="M10.3508 0.714355C15.4215 0.714355 19.5321 4.87171 19.5321 10.0001C19.5321 15.1285 15.4215 19.2858 10.3508 19.2858C6.85657 19.2858 3.81824 17.3116 2.26678 14.4059" stroke="black" stroke-width="1.42857" stroke-linecap="round" stroke-linejoin="round"/>
</g>
<defs>
<clipPath id="clip0_19_118">
<rect width="20" height="20" fill="white" transform="translate(0.333374)"/>
</clipPath>
</defs>
</svg>
