<svg width="72" height="72" viewBox="0 0 72 72" fill="none" xmlns="http://www.w3.org/2000/svg">
<path d="M14 29.7142V47.7857C14 49.036 14.4967 50.2351 15.3808 51.1192C16.2649 52.0033 17.464 52.4999 18.7143 52.4999H53.2857C54.536 52.4999 55.7351 52.0033 56.6192 51.1192C57.5033 50.2351 58 49.036 58 47.7857V29.7142H14Z" fill="#EEE9FF"/>
<path fill-rule="evenodd" clip-rule="evenodd" d="M18.7143 19.5C17.464 19.5 16.2649 19.9967 15.3808 20.8808C14.4967 21.7649 14 22.964 14 24.2143V29.7143H58V24.2143C58 22.964 57.5033 21.7649 56.6192 20.8808C55.7351 19.9967 54.536 19.5 53.2857 19.5H18.7143ZM43.8571 41.1071C43.3362 41.1071 42.8366 41.3141 42.4682 41.6825C42.0998 42.0508 41.8929 42.5505 41.8929 43.0714C41.8929 43.5924 42.0998 44.092 42.4682 44.4604C42.8366 44.8288 43.3362 45.0357 43.8571 45.0357H48.5714C49.0924 45.0357 49.592 44.8288 49.9604 44.4604C50.3288 44.092 50.5357 43.5924 50.5357 43.0714C50.5357 42.5505 50.3288 42.0508 49.9604 41.6825C49.592 41.3141 49.0924 41.1071 48.5714 41.1071H43.8571Z" fill="#6442ED"/>
</svg>
