<svg width="24" height="25" viewBox="0 0 24 25" fill="none" xmlns="http://www.w3.org/2000/svg">
<g clip-path="url(#clip0_19_709)">
<path d="M12 24.3926C18.6274 24.3926 24 19.02 24 12.3926C24 5.76516 18.6274 0.392578 12 0.392578C5.37258 0.392578 0 5.76516 0 12.3926C0 19.02 5.37258 24.3926 12 24.3926Z" fill="white" stroke="white" stroke-width="0.0249309" stroke-miterlimit="10"/>
<path d="M18.712 5.4529L13.3588 11.2361L13.3517 11.2437L13.358 11.2521L19.4018 19.3327H15.0121L10.9329 13.8783L10.924 13.8663L10.9138 13.8773L5.86402 19.3327H4.59884L10.3515 13.1181L10.3585 13.1105L10.3523 13.1022L4.63135 5.4529H9.02097L12.7776 10.4757L12.7865 10.4877L12.7967 10.4767L17.4468 5.4529H18.712ZM6.51692 6.38481H6.49203L6.50694 6.40474L15.4751 18.3958L15.4684 18.4008H15.4851H17.5159H17.5408L17.5259 18.3808L8.55777 6.38981L8.56446 6.38481H8.54779H6.51692Z" fill="#322078" stroke="#322078" stroke-width="0.0249309"/>
</g>
<defs>
<clipPath id="clip0_19_709">
<rect width="24" height="24" fill="white" transform="translate(0 0.392578)"/>
</clipPath>
</defs>
</svg>
